<svg height="512pt" viewBox="-87 0 512 512" width="512pt" xmlns="http://www.w3.org/2000/svg"><g fill-rule="evenodd"><path d="m129.347656 283.230469c3.320313-4.375 5.066406-9.394531 5.066406-13.597657v-30.96875c-22.746093-14.230468-44.789062-39.226562-44.789062-67.535156v-39.152344c25.835938 0 52.703125-8.480468 70.46875-28.140624 22.324219 19.191406 62.957031 26.164062 88.78125 26.164062v41.128906c0 28.308594-22.042969 53.304688-44.789062 67.535156v30.96875c0 3.507813 1.214843 7.582032 3.546874 11.378907 2.808594 4.574219 7.242188 8.746093 13.121094 11.027343l22.15625 8.601563c33.136719 0 53.078125-17.464844 61.339844-48.300781-9.0625-15.691406-15-29.78125-15-54.28125v-67.496094c0-66.308594-54-120.5625-120-120.5625s-120 54.253906-120 120.5625v67.496094c0 24.5-5.941406 38.589844-15 54.28125 8.261719 30.835937 28.199219 48.300781 61.335938 48.300781l22.160156-8.601563c4.914062-1.902343 8.8125-5.128906 11.601562-8.808593zm0 0" fill="#8380e2"/><path d="m134.414062 238.664062c12.605469 7.886719 25.429688 12.464844 34.835938 12.464844s22.230469-4.578125 34.835938-12.464844c22.746093-14.230468 44.789062-39.226562 44.789062-67.535156v-41.128906c-25.824219 0-66.457031-6.972656-88.78125-26.164062-17.765625 19.660156-44.632812 28.140624-70.46875 28.140624v39.152344c0 28.308594 22.042969 53.304688 44.789062 67.535156zm0 0" fill="#ffcbbd"/><path d="m204.085938 238.664062c-12.605469 7.886719-25.429688 12.464844-34.835938 12.464844s-22.230469-4.578125-34.835938-12.46875v30.972656c0 4.203126-1.746093 9.222657-5.066406 13.597657l39.902344 21.351562 38.382812-23.570312c-2.332031-3.796875-3.546874-7.871094-3.546874-11.378907zm0 0" fill="#ffcbbd"/><path d="m207.632812 281.011719-38.382812 23.570312-39.902344-21.347656c-2.789062 3.675781-6.6875 6.902344-11.601562 8.808594l-22.15625 8.597656c0 40.683594 32.980468 73.660156 73.660156 73.660156 40.683594 0 73.660156-32.976562 73.660156-73.660156l-22.15625-8.597656c-5.878906-2.285157-10.3125-6.453125-13.121094-11.03125zm0 0" fill="#ffcbbd"/><path d="m10 442h49.765625v60h-49.765625zm0 0" fill="#ffcbbd"/><path d="m10 442h49.765625v60h218.96875v-60h49.765625v-83.867188c0-14-6.980469-26.984374-19.90625-32l-65.683594-25.492187c0 40.683594-32.980468 73.660156-73.660156 73.660156-40.683594 0-73.664062-32.976562-73.664062-73.660156l-65.679688 25.492187c-12.925781 5.015626-19.90625 18-19.90625 32zm0 0" fill="#d675a7"/><path d="m278.734375 442h49.765625v60h-49.765625zm0 0" fill="#ffcbbd"/></g><path d="m278.734375 387.003906c5.523437 0 10-4.476562 10-10v-.007812c0-5.523438-4.476563-9.996094-10-9.996094s-10 4.480469-10 10.003906c0 5.523438 4.476563 10 10 10zm0 0"/><path d="m312.214844 316.808594-34.730469-13.476563c17.769531-8.683593 30.152344-24.992187 36.425781-48.402343.6875-2.5625.324219-5.292969-1-7.585938-8.859375-15.347656-13.660156-27.746094-13.660156-49.285156v-67.492188c0-71.996094-58.316406-130.566406-130-130.566406-17.65625 0-34.808594 3.539062-50.988281 10.523438-5.070313 2.1875-7.40625 8.070312-5.21875 13.140624 2.1875 5.074219 8.074219 7.410157 13.144531 5.222657 13.660156-5.898438 28.148438-8.886719 43.0625-8.886719 60.652344 0 110 49.597656 110 110.5625v67.496094c0 23.941406 5.386719 39.457031 14.222656 55.53125-7.703125 24.339844-23.699218 36.472656-48.753906 37.023437l-20.34375-7.894531c-6.714844-2.605469-10.289062-9.273438-10.289062-13.085938v-25.582031c3.925781-2.707031 7.769531-5.679687 11.445312-8.890625 21.5-18.769531 33.34375-41.511718 33.34375-64.03125v-41.128906c0-5.523438-4.476562-10-10-10-23.308594 0-61.914062-6.550781-81.90625-23.429688-.058594-.050781-.113281-.105468-.171875-.15625-.179687-.164062-.363281-.316406-.554687-.464843-3.367188-2.953125-6.164063-6.214844-8.226563-9.800781-2.753906-4.789063-8.863281-6.441407-13.652344-3.691407-4.789062 2.753907-6.441406 8.867188-3.691406 13.65625 1.523437 2.644531 3.269531 5.136719 5.21875 7.492188-14.25 11.765625-34.226563 18.371093-56.265625 18.371093-5.519531 0-10 4.476563-10 10v39.152344c0 22.519532 11.84375 45.257813 33.347656 64.03125 3.675782 3.207032 7.519532 6.183594 11.441406 8.890625v25.582031c0 3.8125-3.574218 10.480469-10.285156 13.085938l-20.34375 7.894531c-25.054687-.554687-41.050781-12.683593-48.757812-37.027343 8.839844-16.074219 14.222656-31.585938 14.222656-55.527344v-67.496094c0-14.921875 2.949219-29.417969 8.757812-43.09375 2.160157-5.082031-.210937-10.953125-5.292968-13.113281-5.085938-2.160157-10.957032.210937-13.113282 5.292969-6.867187 16.160156-10.351562 33.292968-10.351562 50.914062v67.496094c0 21.539062-4.800781 33.9375-13.65625 49.28125-1.328125 2.296875-1.6875 5.023437-1 7.585937 6.273438 23.410157 18.652344 39.722657 36.421875 48.402344l-34.726563 13.476563c-15.96875 6.199218-26.289062 22.417968-26.289062 41.324218v143.867188c0 5.523437 4.476562 10 10 10s10-4.476563 10-10v-49.996094h29.769531v50c0 5.523438 4.476563 10 10 10 5.519531 0 10-4.476562 10-10v-80c0-5.523438-4.480469-10-10-10-5.523437 0-10 4.476562-10 10v10h-29.769531v-73.867188c0-8.425781 3.554688-18.808593 13.523438-22.679687l53.273437-20.675781c6.742187 39.417968 41.144531 69.523437 82.453125 69.523437 41.3125 0 75.714844-30.101562 82.453125-69.523437l53.277344 20.675781c9.96875 3.871094 13.523437 14.253906 13.523437 22.679687v73.867188h-29.769531v-10c0-5.523438-4.476563-10-10-10s-10 4.476562-10 10v80c0 5.523438 4.476563 10 10 10s10-4.476562 10-10v-50h29.769531v50c0 5.523438 4.476563 10 10 10 5.523438 0 10-4.476562 10-10v-143.867188c-.003906-18.90625-10.320312-35.125-26.289062-41.324218zm-212.589844-145.679688v-29.542968c23.941406-1.890626 45.554688-10.554688 61.378906-24.601563 22.847656 15.269531 55.371094 21.3125 77.871094 22.691406v31.453125c0 23.820313-19.730469 46.070313-39.722656 58.84375-.28125.160156-.554688.332032-.820313.519532-10.6875 6.6875-21.371093 10.636718-29.082031 10.636718s-18.398438-3.949218-29.085938-10.636718c-.261718-.1875-.535156-.359376-.820312-.519532-19.988281-12.773437-39.71875-35.023437-39.71875-58.84375zm69.625 90c7.351562 0 15.949219-2.125 24.835938-5.929687v14.433593c0 2.34375.359374 4.820313 1.03125 7.332032l-26.207032 16.09375-26.15625-13.996094c1.09375-3.21875 1.660156-6.4375 1.660156-9.429688v-14.433593c8.886719 3.804687 17.484376 5.929687 24.835938 5.929687zm0 103.171875c-32.835938 0-59.945312-24.992187-63.304688-56.953125l15.417969-5.984375c3.742188-1.453125 7.042969-3.4375 9.890625-5.769531l33.277344 17.808594c1.476562.789062 3.097656 1.179687 4.71875 1.179687 1.816406 0 3.632812-.492187 5.230469-1.476562l31.023437-19.050781c3.21875 3 7.09375 5.550781 11.632813 7.308593l15.417969 5.984375c-3.363282 31.960938-30.464844 56.953125-63.304688 56.953125zm0 0"/><path d="m149.253906 160.5625c0-5.519531-4.476562-10-10-10h-.007812c-5.523438 0-9.996094 4.480469-9.996094 10 0 5.523438 4.480469 10 10.003906 10 5.523438 0 10-4.476562 10-10zm0 0"/><path d="m199.253906 170.5625c5.523438 0 10-4.476562 10-10 0-5.519531-4.476562-10-10-10h-.007812c-5.523438 0-9.996094 4.480469-9.996094 10 0 5.523438 4.480469 10 10.003906 10zm0 0"/><path d="m149.785156 212.742188c5.390625 4.710937 12.304688 7.308593 19.464844 7.308593 7.164062 0 14.078125-2.59375 19.46875-7.308593 4.15625-3.636719 4.582031-9.953126.945312-14.113282-3.636718-4.15625-9.953124-4.578125-14.109374-.945312-1.746094 1.527344-3.984376 2.367187-6.304688 2.367187-2.316406 0-4.558594-.839843-6.300781-2.367187-4.160157-3.632813-10.476563-3.210938-14.113281.949218-3.632813 4.15625-3.210938 10.472657.949218 14.109376zm0 0"/><path d="m84.394531 55.519531c2.558594 0 5.117188-.976562 7.070313-2.929687l.007812-.003906c3.902344-3.902344 3.902344-10.234376-.003906-14.136719-3.902344-3.90625-10.238281-3.902344-14.144531 0-3.90625 3.90625-3.90625 10.238281 0 14.144531 1.953125 1.949219 4.511719 2.925781 7.070312 2.925781zm0 0"/></svg>